<svg width="839" height="582" viewBox="0 0 839 582" fill="none" xmlns="http://www.w3.org/2000/svg">
<path d="M159.17 124.942C185.634 124.942 207.088 103.504 207.088 77.0598C207.088 50.6154 185.634 29.178 159.17 29.178C132.706 29.178 111.253 50.6154 111.253 77.0598C111.253 103.504 132.706 124.942 159.17 124.942Z" fill="#FF6584"/>
<path d="M392.307 256.708C392.307 369.687 325.092 409.135 242.179 409.135C159.265 409.135 92.0503 369.687 92.0503 256.708C92.0503 143.728 242.179 0 242.179 0C242.179 0 392.307 143.728 392.307 256.708Z" fill="#F2F2F2"/>
<path d="M236.71 391.853L238.247 297.299L302.235 180.323L238.488 282.467L239.18 239.951L283.28 155.32L239.362 228.701L240.605 152.235L287.829 84.8577L240.801 140.211L241.578 0L236.696 185.614L237.097 177.956L189.085 104.52L236.328 192.655L231.854 278.054L231.721 275.788L176.37 198.507L231.553 283.795L230.994 294.475L230.894 294.636L230.939 295.513L219.589 512.177H234.754L236.573 400.266L291.62 315.186L236.71 391.853Z" fill="#3F3D56"/>
<path d="M839 302.981C839 395.46 783.981 427.75 716.113 427.75C648.244 427.75 593.226 395.46 593.226 302.981C593.226 210.502 716.113 92.8533 716.113 92.8533C716.113 92.8533 839 210.501 839 302.981Z" fill="#F2F2F2"/>
<path d="M711.637 413.604L712.894 336.207L765.272 240.456L713.092 324.065L713.658 289.265L749.756 219.99L713.808 280.055L714.825 217.465L753.48 162.313L714.985 207.623L715.621 92.8533L711.625 244.787L711.954 238.519L672.653 178.408L711.324 250.551L707.662 320.454L707.552 318.599L662.246 255.34L707.415 325.153L706.957 333.895L706.876 334.027L706.913 334.745L697.622 512.094H710.035L711.524 420.49L756.583 350.848L711.637 413.604Z" fill="#3F3D56"/>
<path d="M415.229 530.076C644.554 530.076 830.459 520.686 830.459 509.102C830.459 497.519 644.554 488.128 415.229 488.128C185.905 488.128 0 497.519 0 509.102C0 520.686 185.905 530.076 415.229 530.076Z" fill="#3F3D56"/>
<path d="M668.183 547.347C707.461 547.347 739.302 545.739 739.302 543.755C739.302 541.771 707.461 540.163 668.183 540.163C628.905 540.163 597.064 541.771 597.064 543.755C597.064 545.739 628.905 547.347 668.183 547.347Z" fill="#3F3D56"/>
<path d="M410.833 582C450.111 582 481.952 580.392 481.952 578.408C481.952 576.424 450.111 574.815 410.833 574.815C371.555 574.815 339.714 576.424 339.714 578.408C339.714 580.392 371.555 582 410.833 582Z" fill="#3F3D56"/>
<path d="M215.587 557.56C305.323 557.56 378.068 553.886 378.068 549.353C378.068 544.82 305.323 541.146 215.587 541.146C125.851 541.146 53.106 544.82 53.106 549.353C53.106 553.886 125.851 557.56 215.587 557.56Z" fill="#3F3D56"/>
<path d="M72.6877 482.76C105.354 482.76 131.836 456.299 131.836 423.656C131.836 391.014 105.354 364.552 72.6877 364.552C40.0211 364.552 13.5396 391.014 13.5396 423.656C13.5396 456.299 40.0211 482.76 72.6877 482.76Z" fill="#2F2E41"/>
<path d="M63.1568 469.933L45.189 469.721L44.8096 501.89L62.7775 502.101L63.1568 469.933Z" fill="#2F2E41"/>
<path d="M99.0923 470.356L81.1245 470.145L80.7452 502.313L98.713 502.524L99.0923 470.356Z" fill="#2F2E41"/>
<path d="M74.7515 502.616C74.7881 499.518 68.114 496.927 59.8445 496.829C51.5751 496.732 44.8417 499.165 44.8052 502.264C44.7686 505.362 51.4427 507.953 59.7122 508.051C67.9817 508.148 74.715 505.715 74.7515 502.616Z" fill="#2F2E41"/>
<path d="M110.696 502.291C110.733 499.193 104.059 496.602 95.7891 496.504C87.5196 496.407 80.7863 498.84 80.7498 501.939C80.7132 505.037 87.3873 507.628 95.6568 507.726C103.926 507.823 110.66 505.39 110.696 502.291Z" fill="#2F2E41"/>
<path d="M74.3614 428.912C85.526 428.912 94.5767 419.868 94.5767 408.712C94.5767 397.556 85.526 388.512 74.3614 388.512C63.1969 388.512 54.1462 397.556 54.1462 408.712C54.1462 419.868 63.1969 428.912 74.3614 428.912Z" fill="white"/>
<path d="M74.3614 415.445C78.083 415.445 81.0998 412.431 81.0998 408.712C81.0998 404.993 78.083 401.979 74.3614 401.979C70.6399 401.979 67.623 404.993 67.623 408.712C67.623 412.431 70.6399 415.445 74.3614 415.445Z" fill="#3F3D56"/>
<path d="M15.9639 368.02C11.4403 346.592 26.9606 325.177 50.6296 320.187C74.2985 315.198 97.1531 328.524 101.677 349.952C106.2 371.379 90.4622 379.077 66.7933 384.067C43.1244 389.056 20.4875 389.447 15.9639 368.02Z" fill="#6C63FF"/>
<path d="M162.914 456.629C162.914 497.834 138.401 512.222 108.16 512.222C107.46 512.222 106.761 512.214 106.062 512.198C104.661 512.168 103.273 512.102 101.902 512.008C74.6107 510.078 53.4072 494.951 53.4072 456.629C53.4072 416.971 104.124 366.929 107.934 363.225L107.94 363.218C108.087 363.075 108.16 363.005 108.16 363.005C108.16 363.005 162.914 415.424 162.914 456.629Z" fill="#6C63FF"/>
<path d="M106.166 505.918L126.191 477.957L106.116 508.988L106.062 512.198C104.661 512.168 103.273 512.102 101.902 512.008L104.061 470.783L104.044 470.463L104.081 470.403L104.284 466.51L84.1582 435.402L104.347 463.589L104.394 464.416L106.025 433.268L88.7953 401.123L106.236 427.801L107.934 363.225L107.94 363.005V363.218L107.657 414.141L124.81 393.953L107.587 418.528L107.133 446.415L123.149 419.651L107.066 450.519L106.813 466.023L130.065 428.771L106.726 471.433L106.166 505.918Z" fill="#3F3D56"/>
<path d="M533.446 482.121C566.112 482.121 592.594 455.659 592.594 423.017C592.594 390.375 566.112 363.913 533.446 363.913C500.779 363.913 474.297 390.375 474.297 423.017C474.297 455.659 500.779 482.121 533.446 482.121Z" fill="#2F2E41"/>
<path d="M538.494 469.993L521.318 475.268L530.775 506.019L547.952 500.744L538.494 469.993Z" fill="#2F2E41"/>
<path d="M572.846 459.447L555.669 464.722L565.127 495.473L582.303 490.199L572.846 459.447Z" fill="#2F2E41"/>
<path d="M546.849 507.345C554.754 504.917 560.424 500.548 559.512 497.586C558.601 494.623 551.455 494.19 543.549 496.618C535.644 499.045 529.974 503.415 530.885 506.377C531.796 509.339 538.943 509.772 546.849 507.345Z" fill="#2F2E41"/>
<path d="M580.981 496.08C588.886 493.652 594.556 489.283 593.645 486.321C592.734 483.359 585.587 482.925 577.682 485.353C569.777 487.781 564.107 492.15 565.018 495.112C565.929 498.074 573.076 498.508 580.981 496.08Z" fill="#2F2E41"/>
<path d="M530.478 428.475C541.642 428.475 550.693 419.431 550.693 408.275C550.693 397.118 541.642 388.075 530.478 388.075C519.313 388.075 510.263 397.118 510.263 408.275C510.263 419.431 519.313 428.475 530.478 428.475Z" fill="white"/>
<path d="M530.478 415.008C534.2 415.008 537.216 411.993 537.216 408.275C537.216 404.556 534.2 401.541 530.478 401.541C526.757 401.541 523.74 404.556 523.74 408.275C523.74 411.993 526.757 415.008 530.478 415.008Z" fill="#3F3D56"/>
<path d="M462.442 387.32C451.594 368.292 459.838 343.167 480.856 331.201C501.875 319.236 527.708 324.961 538.556 343.989C549.405 363.017 536.766 375.145 515.748 387.11C494.73 399.076 473.291 406.348 462.442 387.32Z" fill="#6C63FF"/>
<path d="M427.958 449.084C427.958 486.908 405.456 500.115 377.697 500.115C377.053 500.115 376.411 500.108 375.77 500.094C374.484 500.066 373.21 500.005 371.952 499.919C346.899 498.148 327.436 484.261 327.436 449.084C327.436 412.679 373.991 366.743 377.488 363.343L377.494 363.337C377.629 363.205 377.697 363.141 377.697 363.141C377.697 363.141 427.958 411.259 427.958 449.084Z" fill="#6C63FF"/>
<path d="M375.865 494.329L394.248 468.662L375.819 497.147L375.77 500.094C374.484 500.066 373.21 500.005 371.952 499.919L373.933 462.076L373.918 461.783L373.951 461.728L374.138 458.154L355.664 429.598L374.196 455.473L374.239 456.232L375.737 427.639L359.92 398.132L375.93 422.621L377.488 363.343L377.494 363.141V363.337L377.234 410.081L392.98 391.55L377.17 414.108L376.753 439.708L391.455 415.139L376.692 443.475L376.459 457.707L397.803 423.512L376.38 462.673L375.865 494.329Z" fill="#3F3D56"/>
<path d="M625.617 464.859C625.617 506.064 601.105 520.451 570.864 520.451C570.164 520.451 569.464 520.444 568.766 520.428C567.365 520.398 565.977 520.331 564.606 520.238C537.314 518.308 516.111 503.181 516.111 464.859C516.111 425.2 566.828 375.158 570.637 371.455L570.644 371.448C570.791 371.305 570.864 371.235 570.864 371.235C570.864 371.235 625.617 423.654 625.617 464.859Z" fill="#6C63FF"/>
<path d="M568.869 514.148L588.895 486.187L568.819 517.218L568.766 520.428C567.365 520.398 565.977 520.331 564.606 520.238L566.764 479.013L566.748 478.693L566.784 478.633L566.988 474.739L546.862 443.631L567.051 471.819L567.098 472.646L568.729 441.498L551.499 409.353L568.939 436.031L570.637 371.455L570.644 371.235V371.448L570.36 422.37L587.514 402.183L570.29 426.757L569.837 454.645L585.853 427.881L569.77 458.749L569.516 474.253L592.768 437.001L569.43 479.663L568.869 514.148Z" fill="#3F3D56"/>
<path d="M537.202 458.398C539.399 453.769 529.217 444.346 514.46 437.352C499.702 430.358 485.957 428.441 483.76 433.071C481.563 437.7 491.745 447.123 506.503 454.117C521.26 461.111 535.005 463.028 537.202 458.398Z" fill="#2F2E41"/>
<path d="M81.9672 452.988C83.8749 448.233 73.1311 439.455 57.9702 433.382C42.8094 427.31 28.9726 426.243 27.065 430.999C25.1573 435.755 35.9011 444.533 51.062 450.605C66.2228 456.677 80.0596 457.744 81.9672 452.988Z" fill="#2F2E41"/>
<path d="M395.365 45.855C395.515 45.975 395.59 46.125 395.59 46.305C395.59 46.455 395.515 46.68 395.365 46.98C395.245 47.25 395.02 47.625 394.69 48.105C394.39 48.555 393.835 49.185 393.025 49.995C392.215 50.805 391.33 51.51 390.37 52.11C389.41 52.68 388.135 53.19 386.545 53.64C384.985 54.09 383.305 54.315 381.505 54.315C377.125 54.315 373.465 52.785 370.525 49.725C367.615 46.665 366.16 42.66 366.16 37.71C366.16 32.73 367.63 28.77 370.57 25.83C373.54 22.89 377.11 21.42 381.28 21.42C385.93 21.42 389.305 23.025 391.405 26.235L391.36 22.23C391.3 21.87 391.48 21.69 391.9 21.69H394.42C394.81 21.69 395.005 21.87 395.005 22.23V32.04C395.005 32.43 394.81 32.625 394.42 32.625H391.585C391.225 32.625 391.045 32.43 391.045 32.04V31.635C391.045 30.255 390.1 28.83 388.21 27.36C386.35 25.86 384.025 25.11 381.235 25.11C378.445 25.11 375.925 26.22 373.675 28.44C371.455 30.63 370.345 33.75 370.345 37.8C370.345 41.82 371.47 44.955 373.72 47.205C375.97 49.425 378.61 50.535 381.64 50.535C384.91 50.535 387.49 49.8 389.38 48.33C390.85 47.19 391.93 46.035 392.62 44.865C392.86 44.415 393.145 44.325 393.475 44.595L395.365 45.855ZM423.488 54H419.213C417.923 54 417.278 53.37 417.278 52.11V40.275C417.278 38.535 416.858 37.185 416.018 36.225C415.178 35.265 413.948 34.785 412.328 34.785C411.098 34.785 410.153 34.98 409.493 35.37C408.863 35.73 408.383 36.06 408.053 36.36C407.723 36.63 407.453 36.9 407.243 37.17C406.883 37.65 406.583 38.145 406.343 38.655V50.985H408.728C409.118 50.985 409.313 51.165 409.313 51.525V53.46C409.313 53.82 409.118 54 408.728 54H400.133C399.743 54 399.548 53.82 399.548 53.46V51.525C399.548 51.165 399.743 50.985 400.133 50.985H402.608V24.705H400.133C399.743 24.705 399.548 24.525 399.548 24.165V22.23C399.548 21.87 399.743 21.69 400.133 21.69H405.803C406.163 21.69 406.343 21.87 406.343 22.23V32.265C406.343 33.255 406.283 34.17 406.163 35.01H406.253C407.723 32.7 410.063 31.545 413.273 31.545C415.673 31.545 417.548 32.25 418.898 33.66C420.248 35.07 420.938 36.975 420.968 39.375V50.985H423.488C423.878 50.985 424.073 51.165 424.073 51.525V53.46C424.073 53.82 423.878 54 423.488 54ZM449.153 54H445.238C443.948 54 443.303 53.37 443.303 52.11V49.815H443.213C441.023 52.845 438.098 54.36 434.438 54.36C432.278 54.36 430.508 53.805 429.128 52.695C427.748 51.555 427.058 50.025 427.058 48.105C427.058 45.645 428.123 43.845 430.253 42.705C432.413 41.535 435.368 40.95 439.118 40.95H442.898V40.41C442.898 36.66 440.948 34.785 437.048 34.785C435.218 34.785 433.898 34.965 433.088 35.325C432.278 35.655 431.693 35.925 431.333 36.135C431.003 36.345 430.748 36.51 430.568 36.63C430.118 36.99 429.788 37.02 429.578 36.72L428.318 35.145C428.108 34.905 428.138 34.665 428.408 34.425C428.918 33.765 429.968 33.12 431.558 32.49C433.148 31.86 435.023 31.545 437.183 31.545C443.483 31.545 446.633 34.545 446.633 40.545V50.985H449.153C449.513 50.985 449.693 51.165 449.693 51.525V53.46C449.693 53.82 449.513 54 449.153 54ZM442.898 43.65H439.343C437.603 43.65 436.163 43.74 435.023 43.92C433.883 44.1 432.908 44.49 432.098 45.09C431.318 45.69 430.928 46.515 430.928 47.565C430.928 48.615 431.348 49.485 432.188 50.175C433.058 50.835 434.183 51.165 435.563 51.165C438.473 51.165 440.918 49.875 442.898 47.295V43.65ZM462.253 54H453.658C453.268 54 453.073 53.82 453.073 53.46V51.525C453.073 51.165 453.268 50.985 453.658 50.985H456.133V34.875H453.658C453.268 34.875 453.073 34.695 453.073 34.335V32.4C453.073 32.04 453.268 31.86 453.658 31.86H458.923C459.313 31.86 459.508 32.04 459.508 32.4V38.025H459.643C459.733 37.545 460.048 36.885 460.588 36.045C461.128 35.205 461.713 34.515 462.343 33.975C463.003 33.405 463.933 32.895 465.133 32.445C466.363 31.995 467.743 31.77 469.273 31.77C469.663 31.77 469.858 31.965 469.858 32.355V34.74C469.858 35.13 469.663 35.325 469.273 35.325H468.328C465.748 35.325 463.693 36.15 462.163 37.8C460.633 39.45 459.868 41.325 459.868 43.425V50.985H462.253C462.643 50.985 462.838 51.165 462.838 51.525V53.46C462.838 53.82 462.643 54 462.253 54ZM493.933 54H490.018C488.728 54 488.083 53.37 488.083 52.11V49.815H487.993C485.803 52.845 482.878 54.36 479.218 54.36C477.058 54.36 475.288 53.805 473.908 52.695C472.528 51.555 471.838 50.025 471.838 48.105C471.838 45.645 472.903 43.845 475.033 42.705C477.193 41.535 480.148 40.95 483.898 40.95H487.678V40.41C487.678 36.66 485.728 34.785 481.828 34.785C479.998 34.785 478.678 34.965 477.868 35.325C477.058 35.655 476.473 35.925 476.113 36.135C475.783 36.345 475.528 36.51 475.348 36.63C474.898 36.99 474.568 37.02 474.358 36.72L473.098 35.145C472.888 34.905 472.918 34.665 473.188 34.425C473.698 33.765 474.748 33.12 476.338 32.49C477.928 31.86 479.803 31.545 481.963 31.545C488.263 31.545 491.413 34.545 491.413 40.545V50.985H493.933C494.293 50.985 494.473 51.165 494.473 51.525V53.46C494.473 53.82 494.293 54 493.933 54ZM487.678 43.65H484.123C482.383 43.65 480.943 43.74 479.803 43.92C478.663 44.1 477.688 44.49 476.878 45.09C476.098 45.69 475.708 46.515 475.708 47.565C475.708 48.615 476.128 49.485 476.968 50.175C477.838 50.835 478.963 51.165 480.343 51.165C483.253 51.165 485.698 49.875 487.678 47.295V43.65ZM517.451 48.78C517.631 48.93 517.721 49.08 517.721 49.23C517.721 49.35 517.646 49.53 517.496 49.77C517.376 49.98 517.091 50.31 516.641 50.76C516.221 51.21 515.621 51.72 514.841 52.29C514.091 52.86 513.101 53.34 511.871 53.73C510.671 54.12 509.381 54.315 508.001 54.315C504.851 54.315 502.211 53.28 500.081 51.21C497.981 49.14 496.931 46.365 496.931 42.885C496.931 39.375 497.981 36.615 500.081 34.605C502.211 32.565 504.806 31.545 507.866 31.545C510.926 31.545 513.236 32.655 514.796 34.875H514.841L514.796 32.4C514.796 32.01 514.991 31.815 515.381 31.815H517.091C517.451 31.815 517.631 32.01 517.631 32.4V40.05C517.631 40.41 517.451 40.59 517.091 40.59H515.021C514.661 40.59 514.481 40.41 514.481 40.05V39.285C514.451 38.205 513.836 37.17 512.636 36.18C511.436 35.19 509.906 34.695 508.046 34.695C506.216 34.695 504.536 35.43 503.006 36.9C501.476 38.37 500.711 40.38 500.711 42.93C500.711 45.45 501.461 47.46 502.961 48.96C504.461 50.43 506.141 51.165 508.001 51.165C509.861 51.165 511.436 50.775 512.726 49.995C514.046 49.185 514.931 48.405 515.381 47.655C515.591 47.295 515.846 47.25 516.146 47.52L517.451 48.78ZM536.219 51.705C536.339 51.825 536.399 51.96 536.399 52.11C536.399 52.23 536.309 52.38 536.129 52.56C534.809 53.73 533.144 54.315 531.134 54.315C529.154 54.315 527.519 53.67 526.229 52.38C524.969 51.06 524.339 49.155 524.339 46.665V34.875H521.819C521.399 34.875 521.189 34.68 521.189 34.29V32.445C521.189 32.055 521.399 31.86 521.819 31.86H524.339V27.315C524.339 26.895 524.549 26.685 524.969 26.685H527.489C527.879 26.685 528.074 26.895 528.074 27.315V31.86H533.789C534.209 31.86 534.419 32.055 534.419 32.445V34.29C534.419 34.68 534.209 34.875 533.789 34.875H528.074V46.575C528.074 48.075 528.404 49.215 529.064 49.995C529.754 50.745 530.654 51.12 531.764 51.12C532.904 51.12 533.759 50.835 534.329 50.265C534.629 49.995 534.899 50.01 535.139 50.31L536.219 51.705ZM557.781 43.38H541.581C541.701 45.87 542.481 47.79 543.921 49.14C545.391 50.49 547.041 51.165 548.871 51.165C550.701 51.165 552.261 50.775 553.551 49.995C554.871 49.215 555.756 48.45 556.206 47.7C556.446 47.4 556.716 47.355 557.016 47.565L558.231 48.78C558.411 48.96 558.501 49.125 558.501 49.275C558.501 49.395 558.426 49.56 558.276 49.77C558.156 49.98 557.886 50.31 557.466 50.76C557.046 51.21 556.446 51.72 555.666 52.29C554.916 52.86 553.926 53.34 552.696 53.73C551.496 54.12 550.206 54.315 548.826 54.315C545.676 54.315 543.036 53.28 540.906 51.21C538.806 49.14 537.756 46.365 537.756 42.885C537.756 39.375 538.806 36.615 540.906 34.605C543.006 32.565 545.571 31.545 548.601 31.545C551.661 31.545 554.061 32.535 555.801 34.515C557.541 36.465 558.411 39.105 558.411 42.435C558.411 42.555 558.411 42.675 558.411 42.795C558.411 43.185 558.201 43.38 557.781 43.38ZM554.676 40.635C554.586 38.775 554.001 37.29 552.921 36.18C551.841 35.07 550.401 34.515 548.601 34.515C546.801 34.515 545.256 35.025 543.966 36.045C542.676 37.065 541.911 38.595 541.671 40.635H554.676ZM571.15 54H562.555C562.165 54 561.97 53.82 561.97 53.46V51.525C561.97 51.165 562.165 50.985 562.555 50.985H565.03V34.875H562.555C562.165 34.875 561.97 34.695 561.97 34.335V32.4C561.97 32.04 562.165 31.86 562.555 31.86H567.82C568.21 31.86 568.405 32.04 568.405 32.4V38.025H568.54C568.63 37.545 568.945 36.885 569.485 36.045C570.025 35.205 570.61 34.515 571.24 33.975C571.9 33.405 572.83 32.895 574.03 32.445C575.26 31.995 576.64 31.77 578.17 31.77C578.56 31.77 578.755 31.965 578.755 32.355V34.74C578.755 35.13 578.56 35.325 578.17 35.325H577.225C574.645 35.325 572.59 36.15 571.06 37.8C569.53 39.45 568.765 41.325 568.765 43.425V50.985H571.15C571.54 50.985 571.735 51.165 571.735 51.525V53.46C571.735 53.82 571.54 54 571.15 54ZM464.682 112H462.252C461.682 112 461.232 111.895 460.902 111.685C460.572 111.445 460.257 111.085 459.957 110.605L446.952 90.265L444.702 86.485H444.612V108.625H448.077C448.467 108.625 448.662 108.805 448.662 109.165V111.46C448.662 111.82 448.467 112 448.077 112H437.277C436.887 112 436.692 111.82 436.692 111.46V109.165C436.692 108.805 436.887 108.625 437.277 108.625H440.697V83.065H437.277C436.887 83.065 436.692 82.885 436.692 82.525V80.23C436.692 79.87 436.887 79.69 437.277 79.69H443.577C444.447 79.69 445.212 80.2 445.872 81.22L458.697 101.29L461.262 105.655H461.352V83.065H457.887C457.527 83.065 457.347 82.885 457.347 82.525V80.23C457.347 79.87 457.527 79.69 457.887 79.69H468.732C469.092 79.69 469.272 79.87 469.272 80.23V82.525C469.272 82.885 469.092 83.065 468.732 83.065H465.267V111.46C465.267 111.82 465.072 112 464.682 112ZM489.12 109.165C487.02 111.265 484.335 112.315 481.065 112.315C477.795 112.315 475.11 111.28 473.01 109.21C470.91 107.11 469.86 104.335 469.86 100.885C469.86 97.405 470.925 94.645 473.055 92.605C475.185 90.565 477.855 89.545 481.065 89.545C484.305 89.545 486.975 90.58 489.075 92.65C491.205 94.69 492.27 97.435 492.27 100.885C492.27 104.305 491.22 107.065 489.12 109.165ZM473.64 100.885C473.64 103.345 474.36 105.34 475.8 106.87C477.24 108.4 478.995 109.165 481.065 109.165C483.165 109.165 484.935 108.4 486.375 106.87C487.815 105.34 488.535 103.345 488.535 100.885C488.535 98.425 487.8 96.445 486.33 94.945C484.89 93.445 483.15 92.695 481.11 92.695C479.07 92.695 477.315 93.445 475.845 94.945C474.375 96.445 473.64 98.425 473.64 100.885ZM509.983 109.705C510.103 109.825 510.163 109.96 510.163 110.11C510.163 110.23 510.073 110.38 509.893 110.56C508.573 111.73 506.908 112.315 504.898 112.315C502.918 112.315 501.283 111.67 499.993 110.38C498.733 109.06 498.103 107.155 498.103 104.665V92.875H495.583C495.163 92.875 494.953 92.68 494.953 92.29V90.445C494.953 90.055 495.163 89.86 495.583 89.86H498.103V85.315C498.103 84.895 498.313 84.685 498.733 84.685H501.253C501.643 84.685 501.838 84.895 501.838 85.315V89.86H507.553C507.973 89.86 508.183 90.055 508.183 90.445V92.29C508.183 92.68 507.973 92.875 507.553 92.875H501.838V104.575C501.838 106.075 502.168 107.215 502.828 107.995C503.518 108.745 504.418 109.12 505.528 109.12C506.668 109.12 507.523 108.835 508.093 108.265C508.393 107.995 508.663 108.01 508.903 108.31L509.983 109.705ZM540.576 112H528.156C527.766 112 527.571 111.82 527.571 111.46V109.165C527.571 108.805 527.766 108.625 528.156 108.625H531.576V83.065H528.156C527.766 83.065 527.571 82.885 527.571 82.525V80.23C527.571 79.87 527.766 79.69 528.156 79.69H551.241C551.631 79.69 551.826 79.87 551.826 80.23V87.475C551.826 87.865 551.631 88.06 551.241 88.06H548.811C548.451 88.06 548.271 87.865 548.271 87.475V83.065H535.491V94.225H546.066C546.456 94.225 546.651 94.405 546.651 94.765V97.06C546.651 97.42 546.456 97.6 546.066 97.6H535.491V108.625H540.576C540.936 108.625 541.116 108.805 541.116 109.165V111.46C541.116 111.82 540.936 112 540.576 112ZM571.474 109.165C569.374 111.265 566.689 112.315 563.419 112.315C560.149 112.315 557.464 111.28 555.364 109.21C553.264 107.11 552.214 104.335 552.214 100.885C552.214 97.405 553.279 94.645 555.409 92.605C557.539 90.565 560.209 89.545 563.419 89.545C566.659 89.545 569.329 90.58 571.429 92.65C573.559 94.69 574.624 97.435 574.624 100.885C574.624 104.305 573.574 107.065 571.474 109.165ZM555.994 100.885C555.994 103.345 556.714 105.34 558.154 106.87C559.594 108.4 561.349 109.165 563.419 109.165C565.519 109.165 567.289 108.4 568.729 106.87C570.169 105.34 570.889 103.345 570.889 100.885C570.889 98.425 570.154 96.445 568.684 94.945C567.244 93.445 565.504 92.695 563.464 92.695C561.424 92.695 559.669 93.445 558.199 94.945C556.729 96.445 555.994 98.425 555.994 100.885ZM600.662 112H596.747C595.457 112 594.812 111.37 594.812 110.11V108.445H594.677C593.447 111.025 591.107 112.315 587.657 112.315C585.257 112.315 583.352 111.61 581.942 110.2C580.562 108.76 579.857 106.855 579.827 104.485V92.875H577.262C576.902 92.875 576.722 92.695 576.722 92.335V90.4C576.722 90.04 576.902 89.86 577.262 89.86H581.582C582.872 89.86 583.517 90.49 583.517 91.75V103.585C583.517 105.325 583.937 106.675 584.777 107.635C585.617 108.595 586.847 109.075 588.467 109.075C590.657 109.075 592.382 108.265 593.642 106.645C594.182 105.955 594.452 105.49 594.452 105.25V92.875H592.022C591.662 92.875 591.482 92.695 591.482 92.335V90.4C591.482 90.04 591.662 89.86 592.022 89.86H597.602C597.962 89.86 598.142 90.04 598.142 90.4V108.985H600.662C601.052 108.985 601.247 109.165 601.247 109.525V111.46C601.247 111.82 601.052 112 600.662 112ZM628.493 112H624.218C622.928 112 622.283 111.37 622.283 110.11V98.275C622.283 96.535 621.863 95.185 621.023 94.225C620.183 93.265 618.953 92.785 617.333 92.785C615.023 92.785 613.223 93.73 611.933 95.62C611.783 95.8 611.588 96.13 611.348 96.61V108.985H613.733C614.123 108.985 614.318 109.165 614.318 109.525V111.46C614.318 111.82 614.123 112 613.733 112H605.138C604.748 112 604.553 111.82 604.553 111.46V109.525C604.553 109.165 604.748 108.985 605.138 108.985H607.613V92.875H605.138C604.748 92.875 604.553 92.695 604.553 92.335V90.4C604.553 90.04 604.748 89.86 605.138 89.86H610.403C610.793 89.86 610.988 90.04 610.988 90.4L610.898 93.46H611.033C612.593 90.85 615.008 89.545 618.278 89.545C620.678 89.545 622.553 90.25 623.903 91.66C625.253 93.07 625.943 94.975 625.973 97.375V108.985H628.493C628.883 108.985 629.078 109.165 629.078 109.525V111.46C629.078 111.82 628.883 112 628.493 112ZM654.895 112H650.98C650.29 112 649.78 111.865 649.45 111.595C649.15 111.295 649 110.8 649 110.11V107.59H648.955C648.475 108.85 647.575 109.96 646.255 110.92C644.935 111.85 643.33 112.315 641.44 112.315C638.44 112.315 635.995 111.265 634.105 109.165C632.245 107.065 631.315 104.32 631.315 100.93C631.315 97.51 632.245 94.765 634.105 92.695C635.995 90.595 638.455 89.545 641.485 89.545C643.345 89.545 644.89 89.98 646.12 90.85C647.35 91.69 648.235 92.725 648.775 93.955H648.82C648.79 93.355 648.775 92.86 648.775 92.47V82.705H646.255C645.865 82.705 645.67 82.525 645.67 82.165V80.23C645.67 79.87 645.865 79.69 646.255 79.69H651.835C652.195 79.69 652.375 79.87 652.375 80.23V108.985H654.895C655.255 108.985 655.435 109.165 655.435 109.525V111.46C655.435 111.82 655.255 112 654.895 112ZM635.005 100.84C635.005 103.33 635.65 105.34 636.94 106.87C638.26 108.4 639.925 109.165 641.935 109.165C643.945 109.165 645.595 108.415 646.885 106.915C648.175 105.385 648.82 103.36 648.82 100.84C648.82 98.32 648.16 96.34 646.84 94.9C645.52 93.43 643.885 92.695 641.935 92.695C639.985 92.695 638.335 93.43 636.985 94.9C635.665 96.37 635.005 98.35 635.005 100.84Z" fill="#3F3D56"/>
</svg>
